<?xml version="1.0" encoding="UTF-8"?>
<svg width="600px" height="600px" viewBox="0 0 600 600" version="1.1" xmlns="http://www.w3.org/2000/svg" xmlns:xlink="http://www.w3.org/1999/xlink">
    <!-- Generator: Sketch 48 (47235) - http://www.bohemiancoding.com/sketch -->
    <title>halebas_vue_arriere</title>
    <desc>Created with Sketch.</desc>
    <defs>
        <rect id="path-1" x="93.4029851" y="0" width="12.0089552" height="306.895522"></rect>
        <path d="M99.4074627,349.495923 C160.460926,349.495923 193.596747,335.29579 198.814925,306.895522 L5.68434189e-14,306.895522 C5.21817852,335.29579 38.3539994,349.495923 99.4074627,349.495923 Z" id="path-2"></path>
    </defs>
    <g id="hale-bas" stroke="none" stroke-width="1" fill="none" fill-rule="evenodd">
        <g id="halebas_vue_arriere">
            <g id="Group-3" transform="translate(77.000000, 125.000000)">
                <g id="Group">
                    <g id="Rectangle-3">
                        <use fill="#D8D8D8" fill-rule="evenodd" xlink:href="#path-1"></use>
                        <rect stroke="#AEAEAE" stroke-width="1" x="93.9029851" y="0.5" width="11.0089552" height="305.895522"></rect>
                    </g>
                    <g id="Rectangle-3">
                        <use fill="#D8D8D8" fill-rule="evenodd" xlink:href="#path-2"></use>
                        <path stroke="#AEAEAE" stroke-width="1" d="M198.210189,307.395522 L0.604736143,307.395522 C6.11624964,335.087575 38.9959732,348.995923 99.4074627,348.995923 C159.818952,348.995923 192.698676,335.087575 198.210189,307.395522 Z"></path>
                    </g>
                </g>
                <g id="Group-2" transform="translate(98.740299, 0.000000)" fill="#D8D8D8" stroke="#AEAEAE">
                    <path d="M5.75451917,232.801693 L138.407377,249.264985 C135.172243,250.554526 133.360106,253.191046 132.970967,257.174547 C132.581827,261.158048 133.787338,264.533601 136.5875,267.301206 L4.30126805,246.982668 C6.88377882,244.813783 8.17503421,242.347105 8.17503421,239.582635 C8.17503421,236.818165 7.36819586,234.557851 5.75451917,232.801693 Z" id="Path-5"></path>
                    <ellipse id="Oval" cx="140.104478" cy="258.859701" rx="6.67164179" ry="9.34029851"></ellipse>
                    <path d="M4.00298507,246.850746 C6.21377269,246.850746 8.00597015,243.565051 8.00597015,239.51194 C8.00597015,235.45883 6.21377269,232.173134 4.00298507,232.173134 C1.79219746,232.173134 0,235.45883 0,239.51194 C0,241.349718 0.368463926,243.029721 0.977342755,244.317191 C1.71131025,245.86916 2.79462175,246.850746 4.00298507,246.850746 Z" id="Oval-2"></path>
                    <path d="M139.240796,248.619633 C146.496347,175.73611 136.445055,119.604633 109.086921,80.2252014 C81.7287868,40.8457699 47.7705159,14.4641022 7.2121084,1.08019825 L6.79502855,232.440182 L139.240796,248.619633 Z" id="Path-6"></path>
                </g>
                <g id="repris" transform="translate(98.740299, 0.000000)" fill="#F80000" fill-opacity="0.25" stroke="#F80000">
                    <path d="M5.75451917,232.801693 L57.9321791,246.787614 C53.567732,247.179271 51.1909385,249.36685 50.8017987,253.350351 C50.4126589,257.333852 52.458561,260.02636 56.939505,261.427877 L4.30126805,246.982668 C6.88377882,244.813783 8.17503421,242.347105 8.17503421,239.582635 C8.17503421,236.818165 7.36819586,234.557851 5.75451917,232.801693 Z" id="Path-5"></path>
                    <circle id="Oval" cx="58.0432836" cy="254.189552" r="7.33880597"></circle>
                    <path d="M4.00298507,246.850746 C6.21377269,246.850746 8.00597015,243.565051 8.00597015,239.51194 C8.00597015,235.45883 6.21377269,232.173134 4.00298507,232.173134 C1.79219746,232.173134 0,235.45883 0,239.51194 C0,241.349718 0.368463926,243.029721 0.977342755,244.317191 C1.71131025,245.86916 2.79462175,246.850746 4.00298507,246.850746 Z" id="Oval-2"></path>
                    <path d="M61.7193987,247.143675 C82.6657369,204.396188 87.8270456,157.784048 77.203325,107.307257 C66.5796043,56.8304658 43.2491988,21.4214461 7.2121084,1.08019825 L6.79502855,232.440182 L61.7193987,247.143675 Z" id="Path-6"></path>
                </g>
                <path d="M131.431343,259.526866 L110.08209,279.541791" id="Line" stroke="#F80000" stroke-width="3" stroke-linecap="square"></path>
                <path id="Line-decoration-1" d="M110.08209,279.541791 L120.012915,274.343838 L115.909268,269.966615 L110.08209,279.541791 Z" stroke="#F80000" stroke-width="3" stroke-linecap="square"></path>
                <text id="Réduction-du-vrillag" font-family="Helvetica-Bold, Helvetica" font-size="20" font-weight="bold" fill="#000000">
                    <tspan x="281.543284" y="235.161194">Réduction du </tspan>
                    <tspan x="281.543284" y="259.161194">vrillage</tspan>
                </text>
            </g>
        </g>
    </g>
</svg>