<?xml version="1.0" encoding="UTF-8"?>
<svg width="600px" height="600px" viewBox="0 0 600 600" version="1.1" xmlns="http://www.w3.org/2000/svg" xmlns:xlink="http://www.w3.org/1999/xlink">
    <!-- Generator: Sketch 48 (47235) - http://www.bohemiancoding.com/sketch -->
    <title>halebas</title>
    <desc>Created with Sketch.</desc>
    <defs>
        <rect id="path-1" x="0" y="331" width="238" height="11"></rect>
        <polygon id="path-2" points="82.7325778 0.734586923 86.8113363 0.734586923 77 369 72 369"></polygon>
        <rect id="path-3" x="1" y="337" width="238" height="11"></rect>
        <mask id="mask-4" maskContentUnits="userSpaceOnUse" maskUnits="objectBoundingBox" x="0" y="0" width="238" height="11" fill="white">
            <use xlink:href="#path-3"></use>
        </mask>
    </defs>
    <g id="hale-bas" stroke="none" stroke-width="1" fill="none" fill-rule="evenodd">
        <g id="halebas">
            <g id="Group" transform="translate(77.000000, 96.000000)">
                <g id="pasborde" transform="translate(76.000000, 0.000000)">
                    <g id="Rectangle-2">
                        <use fill="#AEAEAE" fill-rule="evenodd" xlink:href="#path-1"></use>
                        <rect stroke="#AEAEAE" stroke-width="1" x="0.5" y="331.5" width="237" height="10"></rect>
                    </g>
                    <polygon id="Path-3" stroke="#D8D8D8" fill="#D8D8D8" opacity="0.641021286" points="9.45058934 0.97247893 82.9166646 51.2448675 203.510376 329.572745 2.20619992 325.334877"></polygon>
                </g>
                <g id="Rectangle">
                    <use fill="#AEAEAE" fill-rule="evenodd" xlink:href="#path-2"></use>
                    <path stroke="#AEAEAE" stroke-width="1" d="M83.2182183,1.23458692 L72.5147841,368.5 L76.5131436,368.5 L86.2978379,1.23458692 L83.2182183,1.23458692 Z"></path>
                </g>
                <path d="M0.295455055,365.526422 C1.26376192,379.105914 3.35821008,387.399295 6.57879952,390.406564 C9.79938896,393.413834 21.9728447,397.269952 43.0991666,401.974921 C87.3973213,405.910646 118.514553,407.942094 136.450862,408.069263 C154.387172,408.196433 216.366467,406.825047 322.388748,403.955105 L322.388748,377.764567 L0.295455055,365.526422 Z" id="Path-2" stroke="#D8D8D8" fill="#D8D8D8"></path>
                <g id="borde" transform="translate(75.000000, 4.000000)" stroke="#F80000" stroke-dasharray="10,10">
                    <use id="Rectangle-2-Copy" mask="url(#mask-4)" stroke-width="2" transform="translate(120.000000, 342.500000) rotate(5.000000) translate(-120.000000, -342.500000) " xlink:href="#path-3"></use>
                    <path d="M5.76114801,223.345089 C14.751722,153.144835 21.739702,104.511092 26.725088,77.443858 C31.7104741,50.3766243 38.8860026,24.8238461 48.2516735,0.785523252 L104.82813,51.5898795 L200.016071,344.539176 L3.02572744,327.226183 L5.76114801,223.345089 Z" id="Path-4"></path>
                </g>
                <path d="M87.5,2.5 L116.5,4.5" id="Line" stroke="#F80000" stroke-width="3" stroke-linecap="square"></path>
                <path id="Line-decoration-1" d="M116.5,4.5 L105.931999,0.764046425 L105.519186,6.7498284 L116.5,4.5 Z" stroke="#F80000" stroke-width="3" stroke-linecap="square"></path>
                <path d="M110.5,342.5 L110.5,371.5" id="Line" stroke="#F80000" stroke-width="3" stroke-linecap="square"></path>
                <path id="Line-decoration-1" d="M110.5,371.5 L113.5,360.7 L107.5,360.7 L110.5,371.5 Z" stroke="#F80000" stroke-width="3" stroke-linecap="square"></path>
                <text id="Cintrage-longitudina" font-family="Helvetica-Bold, Helvetica" font-size="20" font-weight="bold" fill="#000000">
                    <tspan x="323" y="332">Cintrage </tspan>
                    <tspan x="323" y="356">longitudinal</tspan>
                </text>
            </g>
        </g>
    </g>
</svg>