<?xml version="1.0" encoding="UTF-8"?>
<svg width="600px" height="600px" viewBox="0 0 600 600" version="1.1" xmlns="http://www.w3.org/2000/svg" xmlns:xlink="http://www.w3.org/1999/xlink">
    <!-- Generator: Sketch 48 (47235) - http://www.bohemiancoding.com/sketch -->
    <title>patte_oie_relache</title>
    <desc>Created with Sketch.</desc>
    <defs>
        <rect id="path-1" x="93.4029851" y="0" width="12.0089552" height="306.895522"></rect>
        <path d="M99.4074627,349.495923 C160.460926,349.495923 193.596747,335.29579 198.814925,306.895522 L5.68434189e-14,306.895522 C5.21817852,335.29579 38.3539994,349.495923 99.4074627,349.495923 Z" id="path-2"></path>
    </defs>
    <g id="patte_oie" stroke="none" stroke-width="1" fill="none" fill-rule="evenodd">
        <g id="patte_oie_relache">
            <g id="Group-4" transform="translate(111.000000, 125.000000)">
                <g id="Group-3">
                    <g id="Group">
                        <g id="Rectangle-3">
                            <use fill="#D8D8D8" fill-rule="evenodd" xlink:href="#path-1"></use>
                            <rect stroke="#AEAEAE" stroke-width="1" x="93.9029851" y="0.5" width="11.0089552" height="305.895522"></rect>
                        </g>
                        <g id="Rectangle-3">
                            <use fill="#D8D8D8" fill-rule="evenodd" xlink:href="#path-2"></use>
                            <path stroke="#AEAEAE" stroke-width="1" d="M198.210189,307.395522 L0.604736143,307.395522 C6.11624964,335.087575 38.9959732,348.995923 99.4074627,348.995923 C159.818952,348.995923 192.698676,335.087575 198.210189,307.395522 Z"></path>
                        </g>
                    </g>
                    <g id="repris" transform="translate(98.740299, 0.000000)" fill="#D8D8D8" stroke="#AEAEAE">
                        <path d="M5.75451917,232.801693 L57.9321791,246.787614 C53.567732,247.179271 51.1909385,249.36685 50.8017987,253.350351 C50.4126589,257.333852 52.458561,260.02636 56.939505,261.427877 L4.30126805,246.982668 C6.88377882,244.813783 8.17503421,242.347105 8.17503421,239.582635 C8.17503421,236.818165 7.36819586,234.557851 5.75451917,232.801693 Z" id="Path-5"></path>
                        <circle id="Oval" cx="58.0432836" cy="254.189552" r="7.33880597"></circle>
                        <path d="M4.00298507,246.850746 C6.21377269,246.850746 8.00597015,243.565051 8.00597015,239.51194 C8.00597015,235.45883 6.21377269,232.173134 4.00298507,232.173134 C1.79219746,232.173134 0,235.45883 0,239.51194 C0,241.349718 0.368463926,243.029721 0.977342755,244.317191 C1.71131025,245.86916 2.79462175,246.850746 4.00298507,246.850746 Z" id="Oval-2"></path>
                        <path d="M61.7193987,247.143675 C82.6657369,204.396188 87.8270456,157.784048 77.203325,107.307257 C66.5796043,56.8304658 43.2491988,21.4214461 7.2121084,1.08019825 L6.79502855,232.440182 L61.7193987,247.143675 Z" id="Path-6"></path>
                    </g>
                    <text id="Bôme-centrée-et-suré" font-family="Helvetica-Bold, Helvetica" font-size="20" font-weight="bold" fill="#000000">
                        <tspan x="212" y="233">Bôme centrée et </tspan>
                        <tspan x="212" y="257">surélevée</tspan>
                    </text>
                </g>
                <polygon id="Path-2" stroke="#000000" points="0.829552678 305.296487 156.538808 276.534303 197.925991 305.296487"></polygon>
                <path d="M155.507816,269 C155.196408,268.267056 155,267.194693 155,266 C155,263.790861 155.671573,262 156.5,262 C157.328427,262 158,263.790861 158,266 C158,267.194693 157.803592,268.267056 157.492184,269 C157.803592,269.732944 158,270.805307 158,272 C158,274.209139 157.328427,276 156.5,276 C155.671573,276 155,274.209139 155,272 C155,270.805307 155.196408,269.732944 155.507816,269 Z" id="Combined-Shape" fill="#000000"></path>
            </g>
        </g>
    </g>
</svg>