<?xml version="1.0" encoding="UTF-8"?>
<svg width="1061px" height="1080px" viewBox="0 0 1061 1080" version="1.1" xmlns="http://www.w3.org/2000/svg" xmlns:xlink="http://www.w3.org/1999/xlink">
    <!-- Generator: Sketch 48 (47235) - http://www.bohemiancoding.com/sketch -->
    <title>Artboard</title>
    <desc>Created with Sketch.</desc>
    <defs>
        <path d="M30.7713383,288.771338 C55.534199,311.471718 80.2970598,322.821908 105.059921,322.821908 C129.822781,322.821908 154.585642,311.471718 179.348503,288.771338 C156.238722,314.343581 144.683832,339.106441 144.683832,363.059921 C144.683832,387.0134 156.238722,411.77626 179.348503,437.348503 C145.775857,414.219576 121.012996,402.655113 105.059921,402.655113 C89.1068453,402.655113 64.3439845,414.219576 30.7713383,437.348503 C53.3981185,403.468872 64.7115085,378.706011 64.7115085,363.059921 C64.7115085,347.41383 53.3981185,322.650969 30.7713383,288.771338 Z" id="path-1"></path>
        <path d="M414.771338,30.7713383 C439.534199,53.4717182 464.29706,64.8219081 489.059921,64.8219081 C513.822781,64.8219081 538.585642,53.4717182 563.348503,30.7713383 C540.238722,56.3435807 528.683832,81.1064415 528.683832,105.059921 C528.683832,129.0134 540.238722,153.77626 563.348503,179.348503 C529.775857,156.219576 505.012996,144.655113 489.059921,144.655113 C473.106845,144.655113 448.343985,156.219576 414.771338,179.348503 C437.398118,145.468872 448.711509,120.706011 448.711509,105.059921 C448.711509,89.4138299 437.398118,64.6509692 414.771338,30.7713383 Z" id="path-2"></path>
        <path d="M776.771338,135.771338 C801.534199,158.471718 826.29706,169.821908 851.059921,169.821908 C875.822781,169.821908 900.585642,158.471718 925.348503,135.771338 C902.238722,161.343581 890.683832,186.106441 890.683832,210.059921 C890.683832,234.0134 902.238722,258.77626 925.348503,284.348503 C891.775857,261.219576 867.012996,249.655113 851.059921,249.655113 C835.106845,249.655113 810.343985,261.219576 776.771338,284.348503 C799.398118,250.468872 810.711509,225.706011 810.711509,210.059921 C810.711509,194.41383 799.398118,169.650969 776.771338,135.771338 Z" id="path-3"></path>
        <path d="M547.771338,900.771338 C572.534199,923.471718 597.29706,934.821908 622.059921,934.821908 C646.822781,934.821908 671.585642,923.471718 696.348503,900.771338 C673.238722,926.343581 661.683832,951.106441 661.683832,975.059921 C661.683832,999.0134 673.238722,1023.77626 696.348503,1049.3485 C662.775857,1026.21958 638.012996,1014.65511 622.059921,1014.65511 C606.106845,1014.65511 581.343985,1026.21958 547.771338,1049.3485 C570.398118,1015.46887 581.711509,990.706011 581.711509,975.059921 C581.711509,959.41383 570.398118,934.650969 547.771338,900.771338 Z" id="path-4"></path>
        <path d="M881.771338,660.771338 C906.534199,683.471718 931.29706,694.821908 956.059921,694.821908 C980.822781,694.821908 1005.58564,683.471718 1030.3485,660.771338 C1007.23872,686.343581 995.683832,711.106441 995.683832,735.059921 C995.683832,759.0134 1007.23872,783.77626 1030.3485,809.348503 C996.775857,786.219576 972.012996,774.655113 956.059921,774.655113 C940.106845,774.655113 915.343985,786.219576 881.771338,809.348503 C904.398118,775.468872 915.711509,750.706011 915.711509,735.059921 C915.711509,719.41383 904.398118,694.650969 881.771338,660.771338 Z" id="path-5"></path>
        <path d="M30.7713383,765.771338 C55.534199,788.471718 80.2970598,799.821908 105.059921,799.821908 C129.822781,799.821908 154.585642,788.471718 179.348503,765.771338 C156.238722,791.343581 144.683832,816.106441 144.683832,840.059921 C144.683832,864.0134 156.238722,888.77626 179.348503,914.348503 C145.775857,891.219576 121.012996,879.655113 105.059921,879.655113 C89.1068453,879.655113 64.3439845,891.219576 30.7713383,914.348503 C53.3981185,880.468872 64.7115085,855.706011 64.7115085,840.059921 C64.7115085,824.41383 53.3981185,799.650969 30.7713383,765.771338 Z" id="path-6"></path>
    </defs>
    <g id="completed" stroke="none" stroke-width="1" fill="none" fill-rule="evenodd">
        <g id="Artboard">
            <g id="001-sailing" transform="translate(261.000000, 295.000000)" fill="#000000" fill-rule="nonzero">
                <path d="M502.002,387.006 C495.277,387.006 492.096,384.754 487.28,381.344 C481.403,377.183 474.089,372.006 461.002,372.006 C454.235,372.006 449.019,373.395 444.739,375.307 C453.677,359.803 460.854,342.529 465.66,324.592 C466.465,321.589 465.827,318.383 463.934,315.916 C462.041,313.45 459.109,312.004 456,312.004 L338.893,312.004 C389.982,296.671 435.636,276.343 475.243,251.227 C478.56,249.123 480.339,245.271 479.789,241.381 C470.863,178.262 438.679,116.885 413.25,76.512 C385.832,32.98 360.83,4.564 359.78,3.376 C357.952,1.31 355.352,0.09 352.595,0.005 C349.821,-0.083 347.166,0.979 345.217,2.929 C343.777,4.369 342.357,5.841 340.946,7.328 L185.646,149.08 C177.244,147.873 168.386,150.211 161.549,156.261 L129.73,184.361 L118.014,184.361 C125.159,175.713 129.457,164.63 129.457,152.561 C129.457,124.991 107.027,102.561 79.457,102.561 C51.887,102.561 29.457,124.991 29.457,152.561 C29.457,167.793 36.311,181.446 47.088,190.624 C39.987,196.115 35.402,204.71 35.402,214.361 C35.402,220.249 37.104,225.936 40.327,230.834 L90.084,317.015 C93.721,323.295 99.478,327.954 106.132,330.3 C106.649,347.093 108.752,362.928 112.401,377.567 C110.313,378.809 108.453,380.12 106.724,381.344 C101.908,384.754 98.727,387.006 92.002,387.006 C85.277,387.006 82.096,384.754 77.279,381.344 C71.402,377.183 64.089,372.006 51.001,372.006 C37.914,372.006 30.601,377.184 24.724,381.344 C19.908,384.753 16.726,387.006 10.001,387.006 C4.479,387.006 0.001,391.483 0.001,397.006 L0.001,502.003 C0.001,507.526 4.479,512.003 10.001,512.003 L502.003,512.003 C507.525,512.003 512.003,507.526 512.003,502.003 L512.003,397.006 C512.002,391.483 507.525,387.006 502.002,387.006 Z M116.013,312.004 C112.484,312.001 109.181,310.08 107.399,307.004 L106.614,305.645 L136.005,288.675 L168.832,291.955 C172.614,292.332 175.35,293.358 177.029,295.069 L193.965,312.005 L116.013,312.005 L116.013,312.004 Z M222.251,312.004 L191.238,280.993 C186.257,275.917 179.387,272.909 170.82,272.053 L140.299,269.004 L128.098,244.362 L140.965,244.362 C141.476,244.362 141.978,244.323 142.468,244.248 C149.236,243.91 155.694,241.286 160.787,236.779 L188.255,212.522 L239.825,312.004 L222.251,312.004 Z M293.765,129.448 C322.665,125.062 373.805,107.921 401.038,94.955 C412.199,113.262 423.478,133.894 433.261,155.877 C400.391,174.148 328.22,202.408 273.326,216.457 C277.989,185.009 284.838,155.883 293.765,129.448 Z M266.089,309.389 C266.454,284.484 267.954,260.563 270.545,237.747 C323.721,225.018 401.657,195.952 441.015,174.454 C448.994,194.93 455.389,216.281 458.996,237.788 C405.486,270.615 340.677,294.668 266.089,309.389 Z M390.273,77.914 C367.763,88.295 328.515,101.704 301.88,107.57 C315.104,74.994 331.831,47.202 351.815,25.022 C360.012,35.111 374.469,53.741 390.273,77.914 Z M268.193,144.339 C256.464,185.819 249.357,232.086 246.944,282.277 L203.615,198.692 C208.139,193.683 210.823,187.341 211.241,180.504 C211.717,172.712 209.194,165.199 204.142,159.276 L292.951,78.215 C283.255,98.249 274.986,120.318 268.193,144.339 Z M174.795,171.246 C178.893,167.619 185.178,168.003 188.804,172.102 C190.561,174.087 191.439,176.638 191.278,179.283 C191.116,181.929 189.933,184.354 187.956,186.104 L147.543,221.793 C146.376,222.825 144.994,223.555 143.514,223.948 L143.514,198.87 L174.795,171.246 Z M79.457,122.561 C95.999,122.561 109.457,136.019 109.457,152.561 C109.457,169.103 95.999,182.561 79.457,182.561 C62.915,182.561 49.457,169.103 49.457,152.561 C49.457,136.019 62.915,122.561 79.457,122.561 Z M57.109,219.95 C55.993,218.301 55.403,216.368 55.403,214.361 C55.403,208.847 59.889,204.361 65.403,204.361 L123.513,204.361 L123.513,224.361 L111.99,224.361 C108.531,224.361 105.318,226.148 103.494,229.087 C101.67,232.025 101.494,235.698 103.028,238.798 L120.672,274.433 L96.615,288.323 L57.489,220.555 C57.369,220.349 57.243,220.147 57.109,219.95 Z M126.203,332.004 L442.489,332.004 C435.592,352.032 425.356,371.023 413.34,386.002 C410.493,385.027 408.181,383.398 405.28,381.345 C399.403,377.184 392.09,372.007 379.003,372.007 C365.915,372.007 358.602,377.185 352.725,381.345 C347.909,384.754 344.727,387.007 338.002,387.007 C331.277,387.007 328.097,384.755 323.28,381.345 C317.403,377.184 310.09,372.007 297.002,372.007 C283.915,372.007 276.601,377.185 270.724,381.345 C265.909,384.754 262.727,387.007 256.002,387.007 C249.277,387.007 246.096,384.755 241.28,381.345 C235.403,377.184 228.089,372.007 215.002,372.007 C201.915,372.007 194.601,377.185 188.724,381.345 C183.909,384.754 180.727,387.007 174.002,387.007 C167.277,387.007 164.096,384.755 159.28,381.345 C153.403,377.184 146.089,372.007 133.002,372.007 C132.54,372.007 132.102,372.028 131.654,372.04 C128.617,359.64 126.778,346.247 126.203,332.004 Z M20,492.003 L20,466.08 C27.71,464.404 32.859,460.752 37.212,457.658 C41.998,454.255 45.161,452.008 51.834,452.008 C58.508,452.008 61.67,454.256 66.457,457.658 C72.317,461.824 79.61,467.008 92.668,467.008 C105.725,467.008 113.018,461.824 118.878,457.659 C123.665,454.256 126.827,452.008 133.501,452.008 C140.175,452.008 143.337,454.256 148.124,457.659 C153.984,461.824 161.277,467.008 174.334,467.008 C187.391,467.008 194.685,461.824 200.545,457.66 C204.547,454.816 207.438,452.762 212.209,452.18 C217.691,451.512 221.593,446.525 220.925,441.043 C220.256,435.561 215.277,431.656 209.787,432.328 C199.984,433.524 193.871,437.868 188.959,441.359 C184.172,444.761 181.008,447.009 174.334,447.009 C167.661,447.009 164.498,444.761 159.712,441.359 C153.852,437.193 146.559,432.009 133.501,432.009 C120.443,432.009 113.15,437.193 107.29,441.359 C102.504,444.762 99.341,447.009 92.668,447.009 C85.994,447.009 82.832,444.761 78.045,441.359 C72.185,437.193 64.892,432.009 51.834,432.009 C38.777,432.009 31.484,437.193 25.624,441.358 C23.587,442.806 21.844,444.041 20,444.987 L20,405.86 C27.193,404.1 32.099,400.627 36.278,397.668 C41.094,394.258 44.275,392.006 51,392.006 C57.725,392.006 60.906,394.258 65.723,397.668 C71.6,401.829 78.913,407.006 92.001,407.006 C105.088,407.006 112.401,401.828 118.278,397.668 C123.094,394.259 126.276,392.006 133.001,392.006 C139.726,392.006 142.907,394.258 147.723,397.668 C153.6,401.829 160.914,407.006 174.001,407.006 C187.088,407.006 194.402,401.828 200.279,397.668 C205.094,394.259 208.276,392.006 215.001,392.006 C221.726,392.006 224.907,394.258 229.723,397.668 C235.6,401.829 242.914,407.006 256.001,407.006 C269.088,407.006 276.402,401.828 282.279,397.668 C287.094,394.259 290.276,392.006 297.001,392.006 C303.726,392.006 306.907,394.258 311.724,397.668 C317.601,401.829 324.914,407.006 338.001,407.006 C351.089,407.006 358.402,401.828 364.279,397.668 C369.095,394.259 372.277,392.006 379.002,392.006 C385.727,392.006 388.907,394.258 393.724,397.668 C399.601,401.829 406.914,407.006 420.002,407.006 C433.089,407.006 440.403,401.828 446.28,397.668 C451.095,394.259 454.277,392.006 461.002,392.006 C467.727,392.006 470.908,394.258 475.724,397.668 C479.904,400.627 484.81,404.1 492.002,405.86 L492.002,444.987 C490.158,444.042 488.415,442.806 486.378,441.358 C480.518,437.193 473.225,432.009 460.168,432.009 C447.11,432.009 439.817,437.193 433.957,441.359 C429.17,444.761 426.008,447.009 419.334,447.009 C412.661,447.009 409.498,444.761 404.712,441.359 C398.852,437.193 391.559,432.009 378.501,432.009 C365.443,432.009 358.15,437.193 352.291,441.359 C347.504,444.761 344.342,447.009 337.668,447.009 C330.994,447.009 327.831,444.761 323.043,441.359 C318.13,437.867 312.016,433.521 302.207,432.327 C296.716,431.656 291.739,435.563 291.071,441.045 C290.404,446.527 294.306,451.513 299.789,452.18 C304.563,452.761 307.455,454.816 311.457,457.66 C317.317,461.825 324.61,467.009 337.668,467.009 C350.726,467.009 358.019,461.825 363.878,457.659 C368.665,454.257 371.827,452.009 378.501,452.009 C385.175,452.009 388.337,454.257 393.124,457.66 C398.984,461.825 406.277,467.009 419.334,467.009 C432.392,467.009 439.685,461.825 445.545,457.659 C450.332,454.257 453.494,452.009 460.168,452.009 C466.841,452.009 470.004,454.257 474.79,457.659 C479.143,460.753 484.292,464.405 492.002,466.081 L492.002,492.003 L20,492.003 Z" id="Shape" stroke="#000000"></path>
                <path d="M256.001,447.008 L255.994,447.008 C250.472,447.008 245.998,451.485 245.998,457.008 C245.998,462.531 250.478,467.008 256.001,467.008 C261.523,467.008 266.001,462.531 266.001,457.008 C266.001,451.485 261.524,447.008 256.001,447.008 Z" id="Shape"></path>
            </g>
            <g id="Rectangle" transform="translate(105.059921, 363.059921) rotate(-45.000000) translate(-105.059921, -363.059921) ">
                <use fill="#000000" fill-rule="evenodd" xlink:href="#path-1"></use>
                <path stroke="#979797" stroke-width="1" d="M33.3569322,291.767271 C54.5897911,324.051973 65.2115085,347.795707 65.2115085,363.059921 C65.2115085,378.501184 54.341958,402.619819 32.6138053,435.479435 C65.1872858,413.267371 89.3152781,402.155113 105.059921,402.155113 C120.607637,402.155113 144.330304,412.991135 176.287759,434.651191 C154.893494,410.065499 144.183832,386.201184 144.183832,363.059921 C144.183832,340.769933 154.120054,317.809112 173.970103,294.178954 C151.022546,313.600575 128.050594,323.321908 105.059921,323.321908 C81.1365226,323.321908 57.2333959,312.795791 33.3569322,291.767271 Z"></path>
            </g>
            <g id="Rectangle-Copy" transform="translate(489.059921, 105.059921) rotate(-45.000000) translate(-489.059921, -105.059921) ">
                <use fill="#000000" fill-rule="evenodd" xlink:href="#path-2"></use>
                <path stroke="#979797" stroke-width="1" d="M417.356932,33.7672709 C438.589791,66.0519734 449.211509,89.7957074 449.211509,105.059921 C449.211509,120.501184 438.341958,144.619819 416.613805,177.479435 C449.187286,155.267371 473.315278,144.155113 489.059921,144.155113 C504.607637,144.155113 528.330304,154.991135 560.287759,176.651191 C538.893494,152.065499 528.183832,128.201184 528.183832,105.059921 C528.183832,82.769933 538.120054,59.8091119 557.970103,36.1789544 C535.022546,55.6005747 512.050594,65.3219081 489.059921,65.3219081 C465.136523,65.3219081 441.233396,54.7957912 417.356932,33.7672709 Z"></path>
            </g>
            <g id="Rectangle-Copy-2" transform="translate(851.059921, 210.059921) rotate(-45.000000) translate(-851.059921, -210.059921) ">
                <use fill="#000000" fill-rule="evenodd" xlink:href="#path-3"></use>
                <path stroke="#000000" stroke-width="1" d="M779.356932,138.767271 C800.589791,171.051973 811.211509,194.795707 811.211509,210.059921 C811.211509,225.501184 800.341958,249.619819 778.613805,282.479435 C811.187286,260.267371 835.315278,249.155113 851.059921,249.155113 C866.607637,249.155113 890.330304,259.991135 922.287759,281.651191 C900.893494,257.065499 890.183832,233.201184 890.183832,210.059921 C890.183832,187.769933 900.120054,164.809112 919.970103,141.178954 C897.022546,160.600575 874.050594,170.321908 851.059921,170.321908 C827.136523,170.321908 803.233396,159.795791 779.356932,138.767271 Z"></path>
            </g>
            <g id="Rectangle-Copy-3" transform="translate(622.059921, 975.059921) rotate(-45.000000) translate(-622.059921, -975.059921) ">
                <use fill="#000000" fill-rule="evenodd" xlink:href="#path-4"></use>
                <path stroke="#979797" stroke-width="1" d="M550.356932,903.767271 C571.589791,936.051973 582.211509,959.795707 582.211509,975.059921 C582.211509,990.501184 571.341958,1014.61982 549.613805,1047.47943 C582.187286,1025.26737 606.315278,1014.15511 622.059921,1014.15511 C637.607637,1014.15511 661.330304,1024.99114 693.287759,1046.65119 C671.893494,1022.0655 661.183832,998.201184 661.183832,975.059921 C661.183832,952.769933 671.120054,929.809112 690.970103,906.178954 C668.022546,925.600575 645.050594,935.321908 622.059921,935.321908 C598.136523,935.321908 574.233396,924.795791 550.356932,903.767271 Z"></path>
            </g>
            <g id="Rectangle-Copy-5" transform="translate(956.059921, 735.059921) rotate(-45.000000) translate(-956.059921, -735.059921) ">
                <use fill="#000000" fill-rule="evenodd" xlink:href="#path-5"></use>
                <path stroke="#979797" stroke-width="1" d="M884.356932,663.767271 C905.589791,696.051973 916.211509,719.795707 916.211509,735.059921 C916.211509,750.501184 905.341958,774.619819 883.613805,807.479435 C916.187286,785.267371 940.315278,774.155113 956.059921,774.155113 C971.607637,774.155113 995.330304,784.991135 1027.28776,806.651191 C1005.89349,782.065499 995.183832,758.201184 995.183832,735.059921 C995.183832,712.769933 1005.12005,689.809112 1024.9701,666.178954 C1002.02255,685.600575 979.050594,695.321908 956.059921,695.321908 C932.136523,695.321908 908.233396,684.795791 884.356932,663.767271 Z"></path>
            </g>
            <g id="Rectangle-Copy-4" transform="translate(105.059921, 840.059921) rotate(-45.000000) translate(-105.059921, -840.059921) ">
                <use fill="#000000" fill-rule="evenodd" xlink:href="#path-6"></use>
                <path stroke="#979797" stroke-width="1" d="M33.3569322,768.767271 C54.5897911,801.051973 65.2115085,824.795707 65.2115085,840.059921 C65.2115085,855.501184 54.341958,879.619819 32.6138053,912.479435 C65.1872858,890.267371 89.3152781,879.155113 105.059921,879.155113 C120.607637,879.155113 144.330304,889.991135 176.287759,911.651191 C154.893494,887.065499 144.183832,863.201184 144.183832,840.059921 C144.183832,817.769933 154.120054,794.809112 173.970103,771.178954 C151.022546,790.600575 128.050594,800.321908 105.059921,800.321908 C81.1365226,800.321908 57.2333959,789.795791 33.3569322,768.767271 Z"></path>
            </g>
        </g>
    </g>
</svg>