<?xml version="1.0" encoding="UTF-8"?>
<svg width="615px" height="716px" viewBox="0 0 615 716" version="1.1" xmlns="http://www.w3.org/2000/svg" xmlns:xlink="http://www.w3.org/1999/xlink">
    <!-- Generator: Sketch 48 (47235) - http://www.bohemiancoding.com/sketch -->
    <title>cunningham_action</title>
    <desc>Created with Sketch.</desc>
    <defs>
        <rect id="path-1" x="0" y="331" width="238" height="11"></rect>
        <polygon id="path-2" points="82.7325778 47.7345869 86.8113363 47.7345869 77 416 72 416"></polygon>
    </defs>
    <g id="cunningham" stroke="none" stroke-width="1" fill="none" fill-rule="evenodd">
        <g id="cunningham_action">
            <g id="Group" transform="translate(146.000000, 130.000000)">
                <g id="pasborde" transform="translate(76.000000, 47.000000)">
                    <g id="Rectangle-2">
                        <use fill="#AEAEAE" fill-rule="evenodd" xlink:href="#path-1"></use>
                        <rect stroke="#AEAEAE" stroke-width="1" x="0.5" y="331.5" width="237" height="10"></rect>
                    </g>
                    <polygon id="Path-3" stroke="#D8D8D8" fill="#D8D8D8" opacity="0.641021286" points="9.45058934 0.97247893 82.9166646 51.2448675 203.510376 329.572745 2.20619992 325.334877"></polygon>
                </g>
                <g id="Rectangle">
                    <use fill="#AEAEAE" fill-rule="evenodd" xlink:href="#path-2"></use>
                    <path stroke="#AEAEAE" stroke-width="1" d="M83.2182183,48.2345869 L72.5147841,415.5 L76.5131436,415.5 L86.2978379,48.2345869 L83.2182183,48.2345869 Z"></path>
                </g>
                <path d="M0.295455055,412.526422 C1.26376192,426.105914 3.35821008,434.399295 6.57879952,437.406564 C9.79938896,440.413834 21.9728447,444.269952 43.0991666,448.974921 C87.3973213,452.910646 118.514553,454.942094 136.450862,455.069263 C154.387172,455.196433 216.366467,453.825047 322.388748,450.955105 L322.388748,424.764567 L0.295455055,412.526422 Z" id="Path-2" stroke="#D8D8D8" fill="#D8D8D8"></path>
                <g id="borde" transform="translate(78.000000, 51.000000)" stroke="#F80000" stroke-dasharray="10,10">
                    <path d="M2.76114801,223.345089 C11.751722,153.144835 18.739702,104.511092 23.725088,77.443858 C28.7104741,50.3766243 35.8860026,24.8238461 45.2516735,0.785523252 L101.82813,51.5898795 L202.292459,327.226183 L0.0257274417,327.226183 L2.76114801,223.345089 Z" id="Path-4"></path>
                </g>
                <path d="M87.5,49.5 L116.5,51.5" id="Line" stroke="#F80000" stroke-width="3" stroke-linecap="square"></path>
                <path id="Line-decoration-1" d="M116.5,51.5 L105.931999,47.7640464 L105.519186,53.7498284 L116.5,51.5 Z" stroke="#F80000" stroke-width="3" stroke-linecap="square"></path>
                <path d="M85.5,324.5 L85.5,367.5" id="Line-Copy" stroke="#F80000" stroke-width="3" stroke-linecap="square"></path>
                <path id="Line-Copy-decoration-1" d="M85.5,367.5 L88.5,356.7 L82.5,356.7 L85.5,367.5 Z" stroke="#F80000" stroke-width="3" stroke-linecap="square"></path>
                <text id="Cunningham-en-tensio" font-family="Helvetica-Bold, Helvetica" font-size="20" font-weight="bold" fill="#000000">
                    <tspan x="79" y="19">Cunningham en tension</tspan>
                </text>
            </g>
        </g>
    </g>
</svg>