<?xml version="1.0" encoding="UTF-8"?>
<svg width="600px" height="600px" viewBox="0 0 600 600" version="1.1" xmlns="http://www.w3.org/2000/svg" xmlns:xlink="http://www.w3.org/1999/xlink">
    <!-- Generator: Sketch 48 (47235) - http://www.bohemiancoding.com/sketch -->
    <title>ecoute_effet_2</title>
    <desc>Created with Sketch.</desc>
    <defs>
        <rect id="path-1" x="0" y="331" width="238" height="11"></rect>
        <polygon id="path-2" points="82.7325778 45.7345869 86.8113363 45.7345869 77 414 72 414"></polygon>
        <rect id="path-3" x="0" y="347" width="238" height="11"></rect>
        <mask id="mask-4" maskContentUnits="userSpaceOnUse" maskUnits="objectBoundingBox" x="0" y="0" width="238" height="11" fill="white">
            <use xlink:href="#path-3"></use>
        </mask>
    </defs>
    <g id="ecoute" stroke="none" stroke-width="1" fill="none" fill-rule="evenodd">
        <g id="ecoute_effet_2">
            <g id="Group" transform="translate(77.000000, 73.000000)">
                <g id="pasborde" transform="translate(76.000000, 45.000000)">
                    <g id="Rectangle-2">
                        <use fill="#AEAEAE" fill-rule="evenodd" xlink:href="#path-1"></use>
                        <rect stroke="#AEAEAE" stroke-width="1" x="0.5" y="331.5" width="237" height="10"></rect>
                    </g>
                    <polygon id="Path-3" stroke="#D8D8D8" fill="#D8D8D8" opacity="0.641021286" points="9.45058934 0.97247893 82.9166646 51.2448675 203.510376 329.572745 2.20619992 325.334877"></polygon>
                </g>
                <g id="Rectangle">
                    <use fill="#AEAEAE" fill-rule="evenodd" xlink:href="#path-2"></use>
                    <path stroke="#AEAEAE" stroke-width="1" d="M83.2182183,46.2345869 L72.5147841,413.5 L76.5131436,413.5 L86.2978379,46.2345869 L83.2182183,46.2345869 Z"></path>
                </g>
                <path d="M0.295455055,410.526422 C1.26376192,424.105914 3.35821008,432.399295 6.57879952,435.406564 C9.79938896,438.413834 21.9728447,442.269952 43.0991666,446.974921 C87.3973213,450.910646 118.514553,452.942094 136.450862,453.069263 C154.387172,453.196433 216.366467,451.825047 322.388748,448.955105 L322.388748,422.764567 L0.295455055,410.526422 Z" id="Path-2" stroke="#D8D8D8" fill="#D8D8D8"></path>
                <g id="borde" transform="translate(76.000000, 49.000000)" stroke="#F80000" stroke-dasharray="10,10">
                    <use id="Rectangle-2-Copy" mask="url(#mask-4)" stroke-width="2" transform="translate(119.000000, 352.500000) rotate(10.000000) translate(-119.000000, -352.500000) " xlink:href="#path-3"></use>
                    <path d="M4.76114801,223.345089 C13.751722,153.144835 20.739702,104.511092 25.725088,77.443858 C30.7104741,50.3766243 37.8860026,24.8238461 47.2516735,0.785523252 L103.82813,51.5898795 L198.52816,361.406831 L2.02572744,327.226183 L4.76114801,223.345089 Z" id="Path-4"></path>
                </g>
                <path d="M87.5,47.5 L116.5,49.5" id="Line" stroke="#F80000" stroke-width="3" stroke-linecap="square"></path>
                <path id="Line-decoration-1" d="M116.5,49.5 L105.931999,45.7640464 L105.519186,51.7498284 L116.5,49.5 Z" stroke="#F80000" stroke-width="3" stroke-linecap="square"></path>
                <path d="M312.5,382.5 L312.5,411.5" id="Line" stroke="#F80000" stroke-width="3" stroke-linecap="square"></path>
                <path id="Line-decoration-1" d="M312.5,411.5 L315.5,400.7 L309.5,400.7 L312.5,411.5 Z" stroke="#F80000" stroke-width="3" stroke-linecap="square"></path>
                <text id="Cintrage-longitudina" font-family="Helvetica-Bold, Helvetica" font-size="20" font-weight="bold" fill="#000000">
                    <tspan x="323" y="377">Cintrage </tspan>
                    <tspan x="323" y="401">longitudinal</tspan>
                </text>
                <text id="Effet-2" font-family="Helvetica-Bold, Helvetica" font-size="20" font-weight="bold" fill="#000000">
                    <tspan x="191" y="19">Effet 2</tspan>
                </text>
            </g>
        </g>
    </g>
</svg>