<?xml version="1.0" encoding="UTF-8"?>
<svg width="600px" height="600px" viewBox="0 0 600 600" version="1.1" xmlns="http://www.w3.org/2000/svg" xmlns:xlink="http://www.w3.org/1999/xlink">
    <!-- Generator: Sketch 48 (47235) - http://www.bohemiancoding.com/sketch -->
    <title>patte_oie_reprise</title>
    <desc>Created with Sketch.</desc>
    <defs>
        <rect id="path-1" x="93.4029851" y="0" width="12.0089552" height="306.895522"></rect>
        <path d="M99.4074627,349.495923 C160.460926,349.495923 193.596747,335.29579 198.814925,306.895522 L5.68434189e-14,306.895522 C5.21817852,335.29579 38.3539994,349.495923 99.4074627,349.495923 Z" id="path-2"></path>
    </defs>
    <g id="patte_oie" stroke="none" stroke-width="1" fill="none" fill-rule="evenodd">
        <g id="patte_oie_reprise">
            <g id="Group-4" transform="translate(111.000000, 125.000000)">
                <g id="Group-3">
                    <g id="Group">
                        <g id="Rectangle-3">
                            <use fill="#D8D8D8" fill-rule="evenodd" xlink:href="#path-1"></use>
                            <rect stroke="#AEAEAE" stroke-width="1" x="93.9029851" y="0.5" width="11.0089552" height="305.895522"></rect>
                        </g>
                        <g id="Rectangle-3">
                            <use fill="#D8D8D8" fill-rule="evenodd" xlink:href="#path-2"></use>
                            <path stroke="#AEAEAE" stroke-width="1" d="M198.210189,307.395522 L0.604736143,307.395522 C6.11624964,335.087575 38.9959732,348.995923 99.4074627,348.995923 C159.818952,348.995923 192.698676,335.087575 198.210189,307.395522 Z"></path>
                        </g>
                    </g>
                    <g id="repris" transform="translate(98.740299, 1.000000)" fill="#D8D8D8" stroke="#AEAEAE">
                        <path d="M5.75451917,231.801693 L94.2944955,263.812109 C90.0131352,264.530346 87.6778851,266.881215 87.2887453,270.864716 C86.8996055,274.848216 88.924237,277.409418 93.3626398,278.548321 L4.30126805,245.982668 C6.88377882,243.813783 8.17503421,241.347105 8.17503421,238.582635 C8.17503421,235.818165 7.36819586,233.557851 5.75451917,231.801693 Z" id="Path-5"></path>
                        <circle id="Oval" cx="94.338806" cy="271.338806" r="7.33880597"></circle>
                        <path d="M4.00298507,245.850746 C6.21377269,245.850746 8.00597015,242.565051 8.00597015,238.51194 C8.00597015,234.45883 6.21377269,231.173134 4.00298507,231.173134 C1.79219746,231.173134 0,234.45883 0,238.51194 C0,240.349718 0.368463926,242.029721 0.977342755,243.317191 C1.71131025,244.86916 2.79462175,245.850746 4.00298507,245.850746 Z" id="Oval-2"></path>
                        <path d="M96.0411468,263.577206 C94.1063195,209.207365 87.8270456,156.784048 77.203325,106.307257 C66.5796043,55.8304658 43.2491988,20.4214461 7.2121084,0.0801982464 L6.79502855,231.440182 L96.0411468,263.577206 Z" id="Path-6"></path>
                    </g>
                    <text id="Bôme-excentrée-et-ba" font-family="Helvetica-Bold, Helvetica" font-size="20" font-weight="bold" fill="#000000">
                        <tspan x="212" y="233">Bôme excentrée </tspan>
                        <tspan x="212" y="257">et basse</tspan>
                    </text>
                </g>
                <polygon id="Path-2" stroke="#000000" points="0.829552678 305.296487 193.483521 294.984129 197.925991 305.296487"></polygon>
                <path d="M192.507816,288 C192.196408,287.267056 192,286.194693 192,285 C192,282.790861 192.671573,281 193.5,281 C194.328427,281 195,282.790861 195,285 C195,286.194693 194.803592,287.267056 194.492184,288 C194.803592,288.732944 195,289.805307 195,291 C195,293.209139 194.328427,295 193.5,295 C192.671573,295 192,293.209139 192,291 C192,289.805307 192.196408,288.732944 192.507816,288 Z" id="Combined-Shape" fill="#000000"></path>
            </g>
        </g>
    </g>
</svg>