<?xml version="1.0" encoding="iso-8859-1"?>
<!-- Generator: Adobe Illustrator 19.0.0, SVG Export Plug-In . SVG Version: 6.00 Build 0)  -->
<svg version="1.1" id="Capa_1" xmlns="http://www.w3.org/2000/svg" xmlns:xlink="http://www.w3.org/1999/xlink" x="0px" y="0px"
	 viewBox="0 0 512 512" style="enable-background:new 0 0 512 512;" xml:space="preserve">
<g>
	<g>
		<g>
			<path d="M245.333,106.667c5.896,0,10.667-4.771,10.667-10.667V21.333h10.667c5.885,0,10.667,4.781,10.667,10.667v64
				c0,5.896,4.771,10.667,10.667,10.667s10.667-4.771,10.667-10.667V32c0-17.646-14.354-32-32-32h-21.333
				c-5.896,0-10.667,4.771-10.667,10.667V96C234.667,101.896,239.438,106.667,245.333,106.667z"/>
			<path d="M266.667,426.667H288c5.896,0,10.667-4.771,10.667-10.667c0-5.896-4.771-10.667-10.667-10.667h-21.333
				c-17.646,0-32,14.354-32,32c0,17.646,14.354,32,32,32c5.885,0,10.667,4.781,10.667,10.667c0,5.885-4.781,10.667-10.667,10.667
				h-21.333c-5.896,0-10.667,4.771-10.667,10.667c0,5.896,4.771,10.667,10.667,10.667h21.333c17.646,0,32-14.354,32-32
				c0-17.646-14.354-32-32-32c-5.885,0-10.667-4.781-10.667-10.667C256,431.448,260.781,426.667,266.667,426.667z"/>
			<path d="M501.333,288h-32v-21.333h21.333c5.896,0,10.667-4.771,10.667-10.667s-4.771-10.667-10.667-10.667h-21.333V224h32
				c5.896,0,10.667-4.771,10.667-10.667c0-5.896-4.771-10.667-10.667-10.667h-42.667c-5.896,0-10.667,4.771-10.667,10.667v85.333
				c0,5.896,4.771,10.667,10.667,10.667h42.667c5.896,0,10.667-4.771,10.667-10.667C512,292.771,507.229,288,501.333,288z"/>
			<path d="M96,202.667c-5.896,0-10.667,4.771-10.667,10.667v50.104l-10.667,16l-10.667-16v-50.104
				c0-5.896-4.771-10.667-10.667-10.667c-5.896,0-10.667,4.771-10.667,10.667v50.104l-10.667,16l-10.667-16v-50.104
				c0-5.896-4.771-10.667-10.667-10.667C4.771,202.667,0,207.438,0,213.333v53.333c0,2.104,0.625,4.167,1.792,5.917l21.333,32
				c1.979,2.969,5.313,4.75,8.875,4.75s6.896-1.781,8.875-4.75l12.458-18.688l12.458,18.688c1.979,2.969,5.313,4.75,8.875,4.75
				s6.896-1.781,8.875-4.75l21.333-32c1.167-1.75,1.792-3.813,1.792-5.917v-53.333C106.667,207.438,101.896,202.667,96,202.667z"/>
			<path d="M396.396,245.479l-89.44-14.685l52.586-52.586c4.167-4.167,4.167-10.917,0-15.083s-10.917-4.167-15.083,0l-52.586,52.586
				l-14.685-89.44c-0.844-5.156-5.292-8.938-10.521-8.938c-5.229,0-9.677,3.781-10.521,8.938l-14.685,89.44l-52.586-52.586
				c-4.167-4.167-10.917-4.167-15.083,0c-4.167,4.167-4.167,10.917,0,15.083l52.586,52.586l-89.44,14.685
				C131.781,246.323,128,250.771,128,256s3.781,9.677,8.938,10.521l89.44,14.685l-52.586,52.586c-4.167,4.167-4.167,10.917,0,15.083
				c2.083,2.083,4.813,3.125,7.542,3.125c2.729,0,5.458-1.042,7.542-3.125l52.586-52.586l14.685,89.44
				c0.844,5.156,5.292,8.938,10.521,8.938c5.229,0,9.677-3.781,10.521-8.938l14.685-89.44l52.586,52.586
				c2.083,2.083,4.813,3.125,7.542,3.125c2.729,0,5.458-1.042,7.542-3.125c4.167-4.167,4.167-10.917,0-15.083l-52.586-52.586
				l89.44-14.685c5.156-0.844,8.938-5.292,8.938-10.521S401.552,246.323,396.396,245.479z M282.99,263.531
				c-0.233,0.038-0.372,0.254-0.599,0.307c-1.898,0.428-3.734,1.193-5.214,2.672c-1.479,1.479-2.243,3.315-2.672,5.214
				c-0.053,0.227-0.27,0.366-0.307,0.599l-7.531,45.844l-7.531-45.844c-0.038-0.233-0.254-0.372-0.307-0.599
				c-0.428-1.898-1.193-3.734-2.672-5.214c-1.479-1.479-3.315-2.244-5.214-2.672c-0.227-0.053-0.366-0.27-0.599-0.307L204.5,256
				l45.844-7.531c0.233-0.038,0.372-0.254,0.599-0.307c1.898-0.428,3.734-1.193,5.214-2.672c1.479-1.479,2.243-3.315,2.672-5.214
				c0.053-0.227,0.27-0.366,0.307-0.599l7.531-45.844l7.531,45.844c0.038,0.233,0.254,0.372,0.307,0.599
				c0.428,1.898,1.193,3.734,2.672,5.214c1.479,1.479,3.315,2.244,5.214,2.672c0.227,0.053,0.366,0.27,0.599,0.307L328.833,256
				L282.99,263.531z"/>
		</g>
	</g>
</g>
<g>
</g>
<g>
</g>
<g>
</g>
<g>
</g>
<g>
</g>
<g>
</g>
<g>
</g>
<g>
</g>
<g>
</g>
<g>
</g>
<g>
</g>
<g>
</g>
<g>
</g>
<g>
</g>
<g>
</g>
</svg>
